HIERARCHY
ROOT Hips
{
	OFFSET 0.000000 87.230942 0.000000
	CHANNELS 6 Xposition Yposition Zposition Xrotation Yrotation Zrotation
	JOINT Pelvis
	{
		OFFSET 0.000000 0.000000 0.000000
		CHANNELS 3 Xrotation Yrotation Zrotation
		JOINT LeftUpLeg
		{
			OFFSET 12.017000 -9.376404 -2.439400
			CHANNELS 3 Xrotation Yrotation Zrotation
			JOINT LeftLeg
			{
				OFFSET -0.007312 -32.846973 2.110600
				CHANNELS 3 Xrotation Yrotation Zrotation
				JOINT LeftFoot
				{
					OFFSET 0.007312 -32.065170 -0.570400
					CHANNELS 3 Xrotation Yrotation Zrotation
					JOINT LeftToeBase
					{
						OFFSET 0.728300 -11.045900 13.180700
						CHANNELS 3 Xrotation Yrotation Zrotation
						End Site
						{
							OFFSET 0.000000 17.212589 0.000000
						}
					}
				}
				JOINT LeftPantLeg
				{
					OFFSET 0.002788 -16.709013 -3.143600
					CHANNELS 3 Xrotation Yrotation Zrotation
					End Site
					{
						OFFSET -0.605125 24.528742 0.000000
					}
				}
			}
			JOINT Left_Butt
			{
				OFFSET -6.630234 1.326584 -3.183700
				CHANNELS 3 Xrotation Yrotation Zrotation
				End Site
				{
					OFFSET -0.498041 20.188049 0.000000
				}
			}
		}
		JOINT RightUpLeg
		{
			OFFSET -11.717000 -9.376404 -2.439400
			CHANNELS 3 Xrotation Yrotation Zrotation
			JOINT RightLeg
			{
				OFFSET -0.003241 -32.846912 2.110600
				CHANNELS 3 Xrotation Yrotation Zrotation
				JOINT RightFoot
				{
					OFFSET 0.003241 -32.065136 -0.570500
					CHANNELS 3 Xrotation Yrotation Zrotation
					JOINT RightToeBase
					{
						OFFSET -0.728300 -11.045901 13.180700
						CHANNELS 3 Xrotation Yrotation Zrotation
						End Site
						{
							OFFSET 0.000000 17.212593 0.000000
						}
					}
				}
				JOINT RightPantLeg
				{
					OFFSET 0.008142 -16.708982 -3.143700
					CHANNELS 3 Xrotation Yrotation Zrotation
					End Site
					{
						OFFSET 0.605088 24.528715 0.000000
					}
				}
			}
			JOINT Right_Butt
			{
				OFFSET 6.630732 1.326584 -3.183700
				CHANNELS 3 Xrotation Yrotation Zrotation
				End Site
				{
					OFFSET 0.498015 20.188240 0.000000
				}
			}
		}
	}
	JOINT Spine
	{
		OFFSET -0.062400 7.848404 3.918300
		CHANNELS 3 Xrotation Yrotation Zrotation
		JOINT Spine1
		{
			OFFSET -0.072800 11.422302 0.713400
			CHANNELS 3 Xrotation Yrotation Zrotation
			JOINT Spine2
			{
				OFFSET -0.083200 13.054001 -1.931600
				CHANNELS 3 Xrotation Yrotation Zrotation
				JOINT Neck
				{
					OFFSET -0.092200 14.121796 -5.138800
					CHANNELS 3 Xrotation Yrotation Zrotation
					JOINT Head
					{
						OFFSET 0.000200 10.447403 -0.842000
						CHANNELS 3 Xrotation Yrotation Zrotation
						JOINT Visor
						{
							OFFSET 0.457100 25.671204 16.550400
							CHANNELS 3 Xrotation Yrotation Zrotation
							End Site
							{
								OFFSET 0.000000 26.061493 0.000000
							}
						}
						JOINT HairMidA
						{
							OFFSET 0.459400 31.585403 8.437400
							CHANNELS 3 Xrotation Yrotation Zrotation
							End Site
							{
								OFFSET 0.000000 26.061493 0.000000
							}
						}
						JOINT HairMidB
						{
							OFFSET 0.464000 33.309204 -8.389700
							CHANNELS 3 Xrotation Yrotation Zrotation
							End Site
							{
								OFFSET 0.000000 26.061493 0.000000
							}
						}
						JOINT HairMidC
						{
							OFFSET 0.466600 27.991196 -17.375099
							CHANNELS 3 Xrotation Yrotation Zrotation
							End Site
							{
								OFFSET 0.000000 26.061493 0.000000
							}
						}
						JOINT HairMidD
						{
							OFFSET 0.467700 17.888092 -21.169500
							CHANNELS 3 Xrotation Yrotation Zrotation
							End Site
							{
								OFFSET 0.000000 26.061493 0.000000
							}
						}
						JOINT HairMidE
						{
							OFFSET 5.325700 3.514603 -14.369699
							CHANNELS 3 Xrotation Yrotation Zrotation
							End Site
							{
								OFFSET 0.000000 26.061493 0.000000
							}
						}
						JOINT HairMidF
						{
							OFFSET -4.394100 3.514603 -14.372400
							CHANNELS 3 Xrotation Yrotation Zrotation
							End Site
							{
								OFFSET 0.000000 26.061493 0.000000
							}
						}
						JOINT HairLeftA
						{
							OFFSET 15.319900 25.746506 2.623300
							CHANNELS 3 Xrotation Yrotation Zrotation
							End Site
							{
								OFFSET 0.000000 26.061493 0.000000
							}
						}
						JOINT HairLeftB
						{
							OFFSET 12.619500 29.289398 -8.731499
							CHANNELS 3 Xrotation Yrotation Zrotation
							End Site
							{
								OFFSET 0.000000 26.061493 0.000000
							}
						}
						JOINT HairLeftC
						{
							OFFSET 15.714800 15.959900 2.909800
							CHANNELS 3 Xrotation Yrotation Zrotation
							End Site
							{
								OFFSET 0.000000 26.061493 0.000000
							}
						}
						JOINT HairLeftD
						{
							OFFSET 16.101700 18.437408 -7.553200
							CHANNELS 3 Xrotation Yrotation Zrotation
							End Site
							{
								OFFSET 0.000000 26.061493 0.000000
							}
						}
						JOINT HairLeftE
						{
							OFFSET 9.731900 17.915009 -18.316799
							CHANNELS 3 Xrotation Yrotation Zrotation
							End Site
							{
								OFFSET 0.000000 26.061493 0.000000
							}
						}
						JOINT HairLeftF
						{
							OFFSET 11.204300 4.953598 -9.668100
							CHANNELS 3 Xrotation Yrotation Zrotation
							End Site
							{
								OFFSET 0.000000 26.061493 0.000000
							}
						}
						JOINT HairRightA
						{
							OFFSET -14.397900 25.746307 2.615100
							CHANNELS 3 Xrotation Yrotation Zrotation
							End Site
							{
								OFFSET 0.000000 26.061493 0.000000
							}
						}
						JOINT HairRightB
						{
							OFFSET -11.691200 29.289200 -8.738199
							CHANNELS 3 Xrotation Yrotation Zrotation
							End Site
							{
								OFFSET 0.000000 26.061493 0.000000
							}
						}
						JOINT HairRightC
						{
							OFFSET -14.792900 15.959702 2.901400
							CHANNELS 3 Xrotation Yrotation Zrotation
							End Site
							{
								OFFSET 0.000000 26.061493 0.000000
							}
						}
						JOINT HairRightD
						{
							OFFSET -15.174000 18.437195 -7.561900
							CHANNELS 3 Xrotation Yrotation Zrotation
							End Site
							{
								OFFSET 0.000000 26.061493 0.000000
							}
						}
						JOINT HairRightE
						{
							OFFSET -8.798200 17.914902 -18.322001
							CHANNELS 3 Xrotation Yrotation Zrotation
							End Site
							{
								OFFSET 0.000000 26.061493 0.000000
							}
						}
						JOINT HairRightF
						{
							OFFSET -10.275200 4.953506 -9.674099
							CHANNELS 3 Xrotation Yrotation Zrotation
							End Site
							{
								OFFSET 0.000000 26.061493 0.000000
							}
						}
					}
				}
				JOINT LeftShoulder
				{
					OFFSET 5.133500 7.341202 -1.867600
					CHANNELS 3 Xrotation Yrotation Zrotation
					JOINT LeftArm
					{
						OFFSET 8.072663 0.936867 -2.176600
						CHANNELS 3 Xrotation Yrotation Zrotation
						JOINT LeftForeArm
						{
							OFFSET 31.271999 0.000000 0.000000
							CHANNELS 3 Xrotation Yrotation Zrotation
							JOINT LeftHand
							{
								OFFSET 31.771030 0.000000 0.000000
								CHANNELS 3 Xrotation Yrotation Zrotation
								JOINT LeftHandThumb1
								{
									OFFSET 2.886520 -2.557846 4.416640
									CHANNELS 3 Xrotation Yrotation Zrotation
									JOINT LeftHandThumb2
									{
										OFFSET 2.371025 -1.368912 1.368911
										CHANNELS 3 Xrotation Yrotation Zrotation
										JOINT LeftHandThumb3
										{
											OFFSET 2.243378 -1.295212 1.295213
											CHANNELS 3 Xrotation Yrotation Zrotation
											End Site
											{
												OFFSET -0.332611 2.876945 0.020015
											}
										}
									}
								}
								JOINT LeftHandIndex1
								{
									OFFSET 8.568985 -0.641945 3.119977
									CHANNELS 3 Xrotation Yrotation Zrotation
									JOINT LeftHandIndex2
									{
										OFFSET 3.348503 0.000000 0.000000
										CHANNELS 3 Xrotation Yrotation Zrotation
										JOINT LeftHandIndex3
										{
											OFFSET 3.314552 0.000000 0.000000
											CHANNELS 3 Xrotation Yrotation Zrotation
											End Site
											{
												OFFSET -1.032898 3.075485 0.678796
											}
										}
									}
								}
								JOINT LeftHandMiddle1
								{
									OFFSET 8.124603 0.000000 0.000000
									CHANNELS 3 Xrotation Yrotation Zrotation
									JOINT LeftHandMiddle2
									{
										OFFSET 4.166275 0.000000 0.000000
										CHANNELS 3 Xrotation Yrotation Zrotation
										JOINT LeftHandMiddle3
										{
											OFFSET 3.018135 0.000000 0.000000
											CHANNELS 3 Xrotation Yrotation Zrotation
											End Site
											{
												OFFSET -1.032700 2.767982 0.617226
											}
										}
									}
								}
								JOINT LeftHandRing1
								{
									OFFSET 8.571686 -0.031357 -2.884048
									CHANNELS 3 Xrotation Yrotation Zrotation
									JOINT LeftHandRing2
									{
										OFFSET 3.671181 0.000000 0.000000
										CHANNELS 3 Xrotation Yrotation Zrotation
										JOINT LeftHandRing3
										{
											OFFSET 2.728851 0.000000 0.000000
											CHANNELS 3 Xrotation Yrotation Zrotation
											End Site
											{
												OFFSET -0.815796 2.539223 0.577389
											}
										}
									}
								}
								JOINT LeftHandPinky1
								{
									OFFSET 7.854515 -0.675232 -5.213020
									CHANNELS 3 Xrotation Yrotation Zrotation
									JOINT LeftHandPinky2
									{
										OFFSET 3.068596 0.000000 0.000000
										CHANNELS 3 Xrotation Yrotation Zrotation
										JOINT LeftHandPinky3
										{
											OFFSET 2.396042 0.000000 0.000000
											CHANNELS 3 Xrotation Yrotation Zrotation
											End Site
											{
												OFFSET -0.524597 2.267998 0.567429
											}
										}
									}
								}
							}
							JOINT LeftSleeve
							{
								OFFSET 19.684509 -0.200119 0.476146
								CHANNELS 3 Xrotation Yrotation Zrotation
								End Site
								{
									OFFSET -0.031017 25.731133 -0.002868
								}
							}
						}
					}
				}
				JOINT RightShoulder
				{
					OFFSET -4.395900 7.341202 -1.870200
					CHANNELS 3 Xrotation Yrotation Zrotation
					JOINT RightArm
					{
						OFFSET -8.071453 0.936867 -2.181100
						CHANNELS 3 Xrotation Yrotation Zrotation
						JOINT RightForeArm
						{
							OFFSET -31.272011 0.000000 0.000000
							CHANNELS 3 Xrotation Yrotation Zrotation
							JOINT RightHand
							{
								OFFSET -31.771019 0.000000 0.000000
								CHANNELS 3 Xrotation Yrotation Zrotation
								JOINT RightHandThumb1
								{
									OFFSET -2.886520 -2.557808 4.416626
									CHANNELS 3 Xrotation Yrotation Zrotation
									JOINT RightHandThumb2
									{
										OFFSET -2.371056 -1.368927 1.368928
										CHANNELS 3 Xrotation Yrotation Zrotation
										JOINT RightHandThumb3
										{
											OFFSET -2.243362 -1.295204 1.295206
											CHANNELS 3 Xrotation Yrotation Zrotation
											End Site
											{
												OFFSET 0.332642 2.876938 0.020047
											}
										}
									}
								}
								JOINT RightHandIndex1
								{
									OFFSET -8.568993 -0.641953 3.120017
									CHANNELS 3 Xrotation Yrotation Zrotation
									JOINT RightHandIndex2
									{
										OFFSET -3.348518 0.000000 0.000000
										CHANNELS 3 Xrotation Yrotation Zrotation
										JOINT RightHandIndex3
										{
											OFFSET -3.314552 0.000000 0.000000
											CHANNELS 3 Xrotation Yrotation Zrotation
											End Site
											{
												OFFSET 1.032898 3.075478 0.678804
											}
										}
									}
								}
								JOINT RightHandMiddle1
								{
									OFFSET -8.124588 0.000000 0.000000
									CHANNELS 3 Xrotation Yrotation Zrotation
									JOINT RightHandMiddle2
									{
										OFFSET -4.166275 0.000000 0.000000
										CHANNELS 3 Xrotation Yrotation Zrotation
										JOINT RightHandMiddle3
										{
											OFFSET -3.018097 0.000000 0.000000
											CHANNELS 3 Xrotation Yrotation Zrotation
											End Site
											{
												OFFSET 1.032700 2.767937 0.617197
											}
										}
									}
								}
								JOINT RightHandRing1
								{
									OFFSET -8.571747 -0.031349 -2.884061
									CHANNELS 3 Xrotation Yrotation Zrotation
									JOINT RightHandRing2
									{
										OFFSET -3.671204 0.000000 0.000000
										CHANNELS 3 Xrotation Yrotation Zrotation
										JOINT RightHandRing3
										{
											OFFSET -2.728874 0.000000 0.000000
											CHANNELS 3 Xrotation Yrotation Zrotation
											End Site
											{
												OFFSET 0.815804 2.539261 0.577413
											}
										}
									}
								}
								JOINT RightHandPinky1
								{
									OFFSET -7.854561 -0.675247 -5.212970
									CHANNELS 3 Xrotation Yrotation Zrotation
									JOINT RightHandPinky2
									{
										OFFSET -3.068550 0.000000 0.000000
										CHANNELS 3 Xrotation Yrotation Zrotation
										JOINT RightHandPinky3
										{
											OFFSET -2.395981 0.000000 0.000000
											CHANNELS 3 Xrotation Yrotation Zrotation
											End Site
											{
												OFFSET 0.524605 2.267952 0.567413
											}
										}
									}
								}
							}
							JOINT RightSleeve
							{
								OFFSET -19.684753 -0.200165 0.476065
								CHANNELS 3 Xrotation Yrotation Zrotation
								End Site
								{
									OFFSET 0.031342 25.731255 -0.002917
								}
							}
						}
					}
				}
				JOINT Hood
				{
					OFFSET 0.369700 14.447800 -5.317800
					CHANNELS 3 Xrotation Yrotation Zrotation
					JOINT Hood1
					{
						OFFSET 0.001700 -5.553802 -5.895100
						CHANNELS 3 Xrotation Yrotation Zrotation
						JOINT Hood2
						{
							OFFSET -0.000200 -8.380501 0.763600
							CHANNELS 3 Xrotation Yrotation Zrotation
							End Site
							{
								OFFSET 0.000000 8.415215 0.000000
							}
						}
					}
				}
				JOINT Left_Breast
				{
					OFFSET 5.682500 3.120102 3.188800
					CHANNELS 3 Xrotation Yrotation Zrotation
					End Site
					{
						OFFSET 0.000000 10.528564 0.000000
					}
				}
				JOINT Right_Breast
				{
					OFFSET -4.947600 3.120102 3.185900
					CHANNELS 3 Xrotation Yrotation Zrotation
					End Site
					{
						OFFSET 0.000000 10.528564 0.000000
					}
				}
				JOINT Whistle
				{
					OFFSET 0.368200 11.471298 0.095400
					CHANNELS 3 Xrotation Yrotation Zrotation
					JOINT Whistle1
					{
						OFFSET -0.002000 -6.349899 7.479800
						CHANNELS 3 Xrotation Yrotation Zrotation
						JOINT Whistle2
						{
							OFFSET -0.001300 -8.217598 4.717600
							CHANNELS 3 Xrotation Yrotation Zrotation
							End Site
							{
								OFFSET 0.000000 9.475479 0.000000
							}
						}
					}
				}
			}
		}
		JOINT Belly
		{
			OFFSET 0.212400 1.593002 3.163700
			CHANNELS 3 Xrotation Yrotation Zrotation
			End Site
			{
				OFFSET 0.000000 7.496635 0.000000
			}
		}
	}
	JOINT FitGrandmaFacialAnim_Joint
	{
		OFFSET 1.150000 -86.211197 -1.220100
		CHANNELS 3 Xrotation Yrotation Zrotation
		End Site
		{
			OFFSET 0.000000 31.666618 0.000000
		}
	}
}
MOTION
Frames: 4
Frame Time: 0.016667
-1.320861 80.768364 1.159979 -6.082179 -42.982169 -3.906724 0.000000 0.000001 -0.000000 -25.208862 5.911702 14.812058 35.319868 -14.812752 -0.216979 -7.713648 0.999970 -8.383507 -0.000000 -0.000000 0.000000 -0.000001 0.000004 0.000001 -0.000000 0.000002 0.000000 1.506986 -14.970117 -15.164900 33.146799 -8.180360 -0.390470 -26.462765 -5.402934 18.536568 -0.000000 0.000002 0.000000 -0.000003 0.000000 0.000001 0.000000 0.000002 -0.000000 5.841988 4.582245 -1.345364 11.836536 9.038707 -3.084348 11.836539 9.038690 -3.084344 -4.303009 -1.272907 0.206303 -6.271938 20.437796 -0.377163 -0.000000 -0.000000 0.000000 -0.000000 -0.000000 0.000000 -0.000000 -0.000000 0.000000 -0.000000 -0.000000 0.000000 -0.000000 -0.000000 0.000000 -0.000000 -0.000000 0.000000 -0.000000 -0.000000 0.000000 -0.000000 -0.000000 0.000000 -0.000000 -0.000000 0.000000 -0.000000 -0.000000 0.000000 -0.000000 -0.000000 0.000000 -0.000000 -0.000000 0.000000 -0.000000 -0.000000 0.000000 -0.000000 -0.000000 0.000000 -0.000000 -0.000000 0.000000 -0.000000 -0.000000 0.000000 -0.000000 -0.000000 0.000000 -0.000000 -0.000000 0.000000 -0.000000 -0.000000 0.000000 1.392500 -0.696015 -7.877854 -14.260086 2.394330 -63.277099 9.865056 -47.524924 5.927927 16.172860 0.915149 18.795439 9.143014 4.783909 -5.500138 -0.301074 0.107990 0.795300 -0.000001 -0.000000 -0.000000 -0.902034 -6.980982 -3.808324 0.026638 0.799135 -16.417990 -0.000001 -0.000002 0.000002 1.947855 9.683096 -14.539673 -0.466576 -1.573709 -21.879814 -0.000005 -0.000000 -0.000001 2.605898 14.896853 -31.345176 -0.561674 -2.697422 -32.012089 -0.000001 -0.000001 0.000000 4.170599 18.495046 -34.987272 -0.700325 -5.780895 -39.372503 -0.000002 0.000001 0.000000 0.000000 0.000001 -0.000001 1.410968 9.461532 9.792729 1.220061 -24.270719 60.532914 -6.660711 41.858418 8.043863 6.225230 12.322318 11.673331 -8.895705 -4.903270 -0.383683 7.904850 -19.192213 -2.856783 -0.000000 0.000002 -0.000003 -1.085550 -1.215405 4.525429 0.128074 -1.119908 16.942426 -0.000001 0.000001 0.000003 -0.665784 -2.894578 12.730872 -0.670877 1.818958 30.578279 -0.000003 -0.000002 -0.000006 2.420448 -7.405566 21.762815 -0.974632 3.771127 37.430379 0.000000 -0.000000 -0.000004 3.480951 -10.055035 24.322556 -1.465911 7.881290 41.092068 -0.000003 0.000001 0.000002 0.000001 0.000001 -0.000003 0.000001 -0.000001 0.000001 0.000001 -0.000001 0.000001 0.000001 -0.000001 0.000001 0.000001 -0.000001 0.000001 0.000001 -0.000001 0.000001 0.000001 -0.000001 -0.000000 0.000001 -0.000001 0.000001 0.000001 -0.000001 0.000001 0.000000 -0.000000 0.000000 0.000000 0.000001 -0.000000 
-1.120802 80.832275 0.955847 -6.176296 -43.113076 -3.989300 0.000000 0.000001 -0.000000 -25.089761 5.970311 14.870864 34.740726 -14.510435 -0.375821 -7.223521 0.728679 -8.393595 -0.000000 0.000001 0.000000 -0.000000 0.000004 -0.000001 0.000000 0.000002 0.000001 1.074903 -15.185336 -15.283861 33.445199 -7.578179 -0.402373 -26.307449 -5.316009 18.263463 -0.000000 0.000000 -0.000000 0.000000 -0.000001 0.000004 -0.000000 -0.000001 -0.000003 5.873293 4.566965 -1.338586 11.898881 9.008186 -3.077232 11.898879 9.008196 -3.077235 -4.429663 -1.267867 0.288869 -6.490514 20.388205 -0.421786 0.000000 0.000000 0.000000 0.000000 0.000000 0.000000 0.000000 0.000000 0.000000 0.000000 0.000000 0.000000 0.000000 0.000000 0.000000 0.000000 0.000000 0.000000 0.000000 0.000000 0.000000 0.000000 0.000000 0.000000 0.000000 0.000000 0.000000 0.000000 0.000000 0.000000 0.000000 0.000000 0.000000 0.000000 0.000000 0.000000 0.000000 0.000000 0.000000 0.000000 0.000000 0.000000 0.000000 0.000000 0.000000 0.000000 0.000000 0.000000 0.000000 0.000000 0.000000 0.000000 0.000000 0.000000 0.000000 0.000000 0.000000 1.401858 -0.822652 -7.787735 -14.062060 2.347400 -63.133570 10.053591 -47.618153 5.985812 16.200683 0.994748 19.382999 9.158615 4.725357 -5.454710 0.188503 0.417737 0.798310 -0.000000 -0.000001 0.000001 -0.958175 -6.941331 -4.413350 0.024146 0.791036 -16.487790 0.000002 0.000000 0.000001 2.036492 9.671562 -15.139975 -0.465810 -1.571754 -21.854481 0.000000 0.000000 0.000001 2.574086 14.834128 -31.340149 -0.563077 -2.699657 -32.043201 -0.000001 0.000000 0.000002 4.238344 18.498966 -35.334112 -0.697819 -5.785146 -39.451326 0.000004 -0.000001 -0.000000 -0.000001 0.000003 -0.000001 1.466864 9.326477 9.780290 0.638242 -23.863783 60.130738 -6.816780 41.825401 8.076380 6.034893 12.620481 11.250451 -8.972875 -4.851963 -0.420225 8.125487 -18.985146 -2.690124 -0.000001 0.000001 0.000001 -1.120323 -1.139225 4.966041 0.131792 -1.131935 16.816885 -0.000001 0.000001 0.000002 -0.659743 -2.887922 12.813727 -0.667697 1.813537 30.476871 -0.000001 -0.000003 -0.000002 2.379474 -7.285919 22.042048 -0.967363 3.761642 37.319354 -0.000002 0.000001 -0.000002 3.532386 -10.190443 24.332998 -1.452829 7.866249 40.832001 -0.000001 -0.000001 0.000004 0.000002 -0.000001 0.000002 0.000000 -0.000001 0.000000 0.000000 -0.000001 0.000000 0.000000 -0.000001 0.000000 0.000000 -0.000001 0.000000 0.000000 -0.000001 0.000000 0.000000 -0.000001 0.000000 0.000000 0.000001 0.000000 0.000000 0.000001 0.000000 0.000000 -0.000001 0.000000 0.000000 0.000001 -0.000000 
-0.907417 80.927773 0.682666 -6.188600 -43.263818 -4.065925 0.000000 0.000002 0.000000 -24.966652 6.056852 15.015860 33.885911 -14.087714 -0.572489 -6.538514 0.335016 -8.461516 -0.000000 -0.000003 -0.000000 -0.000001 -0.000002 0.000000 0.000001 0.000002 0.000001 0.505408 -15.475052 -15.287341 33.732515 -6.932319 -0.476453 -26.070953 -5.166356 17.906116 -0.000000 0.000000 -0.000000 -0.000002 0.000002 0.000002 0.000001 -0.000000 -0.000000 5.915229 4.545636 -1.325147 11.981817 8.966221 -3.057287 11.981822 8.966198 -3.057284 -4.631372 -1.213634 0.393658 -6.738248 20.342057 -0.503910 0.000001 -0.000000 -0.000000 0.000001 -0.000000 -0.000000 0.000001 -0.000000 -0.000000 0.000001 -0.000000 -0.000000 0.000001 -0.000000 -0.000000 0.000001 -0.000000 -0.000000 0.000001 -0.000000 -0.000000 0.000001 -0.000000 -0.000000 0.000001 -0.000000 -0.000000 0.000001 -0.000000 -0.000000 0.000001 -0.000000 -0.000000 0.000001 -0.000000 -0.000000 0.000001 -0.000000 -0.000000 0.000001 -0.000000 -0.000000 0.000001 -0.000000 -0.000000 0.000001 -0.000000 -0.000000 0.000001 -0.000000 -0.000000 0.000001 -0.000000 -0.000000 0.000001 -0.000000 -0.000000 1.424246 -0.917257 -7.638833 -13.828631 2.336954 -63.082930 10.239093 -47.620786 6.058576 16.425422 0.929056 20.144063 9.173021 4.617632 -5.382487 1.007818 0.982154 0.784561 -0.000002 0.000001 -0.000002 -1.080092 -6.902733 -5.464020 0.021386 0.782103 -16.564496 0.000001 0.000000 -0.000001 2.179160 9.621910 -16.188807 -0.471079 -1.570357 -21.850168 -0.000002 -0.000003 -0.000000 2.576038 14.731943 -31.569729 -0.560851 -2.704441 -32.093840 0.000002 0.000001 0.000000 4.353730 18.523997 -35.859907 -0.693003 -5.791250 -39.531082 0.000000 -0.000001 -0.000000 0.000003 0.000002 -0.000002 1.548604 9.197638 9.728925 -0.123835 -23.268383 59.659947 -6.921679 41.713413 8.099069 5.976512 12.974419 10.588702 -9.096279 -4.769449 -0.477919 8.264819 -18.775756 -2.508969 -0.000002 0.000001 0.000000 -1.151626 -1.039401 5.376215 0.137447 -1.150291 16.624540 0.000001 0.000004 0.000000 -0.653066 -2.883167 12.864835 -0.661481 1.799807 30.309111 0.000002 0.000002 -0.000003 2.335061 -7.175473 22.316858 -0.956279 3.749331 37.136661 -0.000000 -0.000003 0.000001 3.606866 -10.405716 24.310083 -1.436079 7.850956 40.538037 -0.000001 0.000000 0.000001 0.000004 -0.000000 -0.000001 0.000000 0.000002 -0.000001 0.000000 0.000002 -0.000001 0.000000 0.000002 -0.000001 0.000000 0.000002 -0.000001 0.000000 0.000002 -0.000001 0.000000 0.000002 -0.000001 0.000002 0.000000 0.000000 0.000002 0.000000 0.000000 0.000000 -0.000000 -0.000000 0.000000 0.000002 0.000000 
-0.663999 81.117020 0.238124 -6.075989 -43.449736 -4.160978 0.000000 0.000002 0.000000 -24.751113 6.227819 15.379421 32.303626 -13.384162 -0.863100 -5.367676 -0.399113 -8.655367 -0.000000 0.000002 0.000000 -0.000000 -0.000000 0.000001 0.000001 0.000003 -0.000001 -0.226181 -16.020451 -15.009681 33.787942 -6.106373 -0.737635 -25.597947 -4.923146 17.359156 0.000000 -0.000000 0.000000 -0.000002 -0.000001 0.000002 -0.000000 -0.000001 0.000000 5.994062 4.506908 -1.289853 12.136442 8.890869 -2.994820 12.136441 8.890862 -2.994819 -4.947638 -1.039901 0.521741 -7.184476 20.285945 -0.667903 0.000001 0.000000 0.000000 0.000001 0.000000 0.000000 0.000001 0.000000 0.000000 0.000001 0.000000 0.000000 0.000001 0.000000 0.000000 0.000001 0.000000 0.000000 0.000001 0.000000 0.000000 0.000001 0.000000 0.000000 0.000001 0.000000 0.000000 0.000001 0.000000 0.000000 0.000001 0.000000 0.000000 0.000001 0.000000 0.000000 0.000001 0.000000 0.000000 0.000001 0.000000 0.000000 0.000001 0.000000 0.000000 0.000001 0.000000 0.000000 0.000001 0.000000 0.000000 0.000001 0.000000 0.000000 0.000001 0.000000 0.000000 1.480743 -0.968465 -7.357328 -13.473013 2.397449 -63.225217 10.444985 -47.365159 6.152039 17.081991 0.460951 21.365428 9.194229 4.397447 -5.240281 2.808065 2.235768 0.718580 -0.000001 0.000002 0.000003 -1.409019 -6.869437 -7.861246 0.012219 0.773623 -16.652701 -0.000002 0.000001 0.000001 2.493105 9.474519 -18.639105 -0.485910 -1.571227 -21.897079 -0.000001 -0.000002 0.000002 2.669343 14.511125 -32.472475 -0.555805 -2.714329 -32.197198 0.000003 -0.000001 -0.000000 4.607212 18.590223 -36.929416 -0.682555 -5.802199 -39.617430 -0.000000 0.000000 0.000004 -0.000002 0.000001 -0.000002 1.699780 9.063898 9.572952 -1.390750 -22.194249 59.019419 -6.909173 41.325363 8.080222 6.289869 13.518286 9.316036 -9.337838 -4.606808 -0.590498 8.194678 -18.557877 -2.290264 -0.000000 0.000001 0.000001 -1.167077 -0.886025 5.671159 0.148041 -1.184238 16.268838 -0.000002 0.000000 -0.000000 -0.639255 -2.885169 12.772659 -0.654322 1.769154 29.971423 -0.000001 -0.000000 -0.000002 2.289824 -7.091445 22.555971 -0.934100 3.724399 36.768708 -0.000001 0.000000 -0.000000 3.751378 -10.858940 24.169891 -1.411320 7.835668 40.176341 0.000000 -0.000005 -0.000001 0.000001 0.000000 -0.000001 -0.000001 0.000001 -0.000000 -0.000001 0.000001 -0.000000 -0.000001 0.000001 -0.000000 -0.000001 0.000001 -0.000000 -0.000001 0.000001 -0.000000 -0.000001 0.000001 -0.000000 -0.000001 0.000001 -0.000001 -0.000001 0.000001 -0.000001 0.000000 0.000001 0.000000 0.000000 0.000002 0.000000 
